<svg width="1440" height="148" viewBox="0 0 1440 148" fill="none" xmlns="http://www.w3.org/2000/svg">
<rect width="4866" height="63" transform="translate(-19 84.333) rotate(-2.5)" fill="white"/>
<path d="M-0.322959 131.149C-2.83619 131.259 -5.14829 130.781 -7.25926 129.716C-9.35462 128.65 -11.0316 127.136 -12.2903 125.173C-13.5497 123.195 -14.2336 120.965 -14.3419 118.483L-15.2334 98.0646L-10.8547 97.8734L-9.96737 118.198C-9.85423 120.789 -8.90094 122.921 -7.10749 124.595C-5.29911 126.252 -3.09928 127.024 -0.508 126.911C2.09889 126.797 4.23087 125.836 5.88794 124.027C7.54434 122.203 8.31596 119.996 8.20282 117.404L7.31544 97.0801L11.6707 96.8899L12.5621 117.308C12.6705 119.79 12.1836 122.071 11.1015 124.152C10.0186 126.216 8.47214 127.871 6.46204 129.117C4.46755 130.361 2.20588 131.038 -0.322959 131.149ZM48.3851 128.436L42.9293 128.674L31.8189 115.458L21.9259 129.591L16.5404 129.826L28.7153 112.615L15.2832 96.7322L20.7155 96.495L31.6569 109.601L41.3209 95.5954L46.7532 95.3582L34.7564 112.351L48.3851 128.436ZM75.1923 94.1165C78.3456 93.9788 81.2336 94.5722 83.8564 95.8965C86.4791 97.2209 88.5716 99.1158 90.1337 101.581C91.6952 104.031 92.5437 106.809 92.6794 109.916C92.815 113.022 92.2122 115.871 90.8708 118.464C89.5295 121.056 87.6102 123.126 85.1128 124.674C82.6154 126.222 79.7901 127.065 76.6369 127.202L63.8756 127.759L62.4311 94.6737L75.1923 94.1165ZM76.4101 123.083C79.9068 122.93 82.7819 121.616 85.0354 119.141C87.289 116.665 88.3384 113.655 88.1837 110.112C88.0821 107.786 87.4516 105.702 86.292 103.86C85.1473 102.002 83.6071 100.576 81.6712 99.5813C79.751 98.586 77.6357 98.1388 75.3254 98.2396L67.013 98.6026L68.0977 123.446L76.4101 123.083ZM121.957 112.977C121.967 113.212 121.955 113.822 121.919 114.809L100.869 115.728C101.385 117.864 102.483 119.56 104.165 120.816C105.861 122.055 107.888 122.624 110.245 122.521C111.993 122.445 113.585 122.007 115.02 121.21C116.455 120.396 117.56 119.386 118.336 118.179L121.276 120.491C120.115 122.199 118.572 123.573 116.647 124.611C114.737 125.648 112.611 126.218 110.27 126.32C106.445 126.487 103.207 125.393 100.555 123.038C97.9027 120.682 96.4966 117.671 96.3364 114.002C96.2328 111.629 96.6929 109.451 97.7167 107.467C98.7555 105.467 100.234 103.869 102.153 102.675C104.071 101.481 106.232 100.831 108.636 100.727C111.025 100.622 113.219 101.082 115.218 102.105C117.218 103.128 118.815 104.599 120.009 106.517C121.203 108.42 121.852 110.573 121.957 112.977ZM108.755 104.522C106.632 104.615 104.827 105.358 103.339 106.752C101.851 108.131 100.958 109.875 100.659 111.984L117.494 111.249C117.011 109.143 115.969 107.476 114.367 106.247C112.764 105.004 110.894 104.428 108.755 104.522ZM135.096 125.236C131.147 125.409 127.782 124.273 125.001 121.83L127.166 118.756C129.253 120.713 131.819 121.626 134.863 121.493C136.517 121.421 137.862 121.057 138.897 120.402C139.931 119.731 140.425 118.857 140.378 117.78C140.358 117.327 140.223 116.927 139.973 116.578C139.739 116.213 139.46 115.92 139.137 115.699C138.831 115.478 138.368 115.272 137.75 115.08C137.146 114.871 136.616 114.723 136.158 114.633C135.716 114.527 135.084 114.391 134.264 114.223C133.506 114.068 132.907 113.946 132.465 113.856C132.022 113.75 131.444 113.588 130.731 113.369C130.033 113.149 129.461 112.931 129.013 112.716C128.582 112.501 128.1 112.217 127.569 111.864C127.052 111.496 126.636 111.107 126.321 110.699C126.021 110.274 125.757 109.77 125.528 109.185C125.314 108.585 125.191 107.925 125.16 107.207C125.093 105.677 125.473 104.339 126.298 103.193C127.124 102.046 128.221 101.185 129.587 100.609C130.953 100.018 132.495 99.6848 134.212 99.6098C137.74 99.4558 140.778 100.441 143.326 102.567L141.14 105.688C139.269 104.018 137.029 103.24 134.423 103.354C132.94 103.419 131.719 103.754 130.76 104.359C129.801 104.964 129.344 105.773 129.388 106.788C129.408 107.256 129.544 107.673 129.794 108.037C130.044 108.386 130.322 108.671 130.629 108.892C130.952 109.113 131.43 109.326 132.065 109.533C132.699 109.725 133.229 109.873 133.656 109.98C134.098 110.07 134.745 110.198 135.597 110.364C136.338 110.504 136.93 110.627 137.372 110.733C137.83 110.822 138.407 110.969 139.104 111.173C139.801 111.377 140.365 111.587 140.797 111.803C141.244 112.002 141.725 112.279 142.241 112.631C142.757 112.984 143.164 113.365 143.464 113.774C143.763 114.184 144.02 114.689 144.234 115.289C144.463 115.874 144.592 116.517 144.623 117.219C144.726 119.576 143.878 121.475 142.08 122.914C140.281 124.337 137.953 125.112 135.096 125.236ZM150.211 94.5947C149.414 94.6295 148.74 94.4009 148.187 93.9089C147.633 93.4014 147.339 92.7573 147.305 91.9768C147.27 91.1807 147.506 90.5135 148.015 89.9752C148.523 89.4369 149.175 89.1503 149.971 89.1156C150.752 89.0815 151.411 89.3108 151.949 89.8034C152.486 90.2961 152.772 90.9404 152.807 91.7366C152.841 92.5171 152.604 93.1843 152.097 93.7382C151.604 94.2758 150.975 94.5613 150.211 94.5947ZM149.431 124.024L148.364 99.5785L152.485 99.3985L153.552 123.844L149.431 124.024ZM175.222 123.531C177.548 123.43 179.486 123.932 181.035 125.037C182.585 126.142 183.521 127.705 183.844 129.724L179.63 131.01C179.536 129.92 179.029 129.058 178.11 128.426C177.207 127.808 176.061 127.53 174.672 127.59L165.657 127.984C163.628 128.073 161.957 127.606 160.646 126.584C159.35 125.561 158.665 124.192 158.59 122.475C158.539 121.319 158.758 120.231 159.245 119.208C159.747 118.17 160.455 117.373 161.369 116.817C160.264 115.88 159.387 114.761 158.736 113.46C158.1 112.158 157.749 110.742 157.682 109.212C157.55 106.184 158.501 103.617 160.536 101.51C162.586 99.3876 165.204 98.2567 168.388 98.1177C170.558 98.023 172.579 98.4665 174.452 99.4482C174.629 98.1423 175.201 97.0852 176.167 96.2766C177.132 95.4681 178.357 95.0315 179.84 94.9667L181.713 94.885L181.881 98.725L180.241 98.7966C179.352 98.8355 178.637 99.1169 178.097 99.641C177.571 100.149 177.319 100.809 177.338 101.621C179.013 103.441 179.907 105.646 180.02 108.237C180.152 111.25 179.193 113.825 177.144 115.964C175.094 118.086 172.484 119.217 169.315 119.355C167.395 119.439 165.654 119.132 164.09 118.434C163.62 118.767 163.255 119.19 162.996 119.702C162.752 120.197 162.642 120.71 162.665 121.241C162.702 122.099 163.052 122.772 163.715 123.26C164.377 123.747 165.224 123.968 166.254 123.923L175.222 123.531ZM168.56 102.051C166.577 102.138 164.958 102.85 163.703 104.187C162.447 105.509 161.861 107.122 161.944 109.026C162.028 110.946 162.753 112.518 164.12 113.741C165.502 114.947 167.177 115.507 169.144 115.422C171.11 115.336 172.722 114.632 173.978 113.31C175.249 111.972 175.843 110.343 175.759 108.423C175.676 106.519 174.943 104.963 173.561 103.757C172.194 102.534 170.527 101.966 168.56 102.051ZM197.851 96.8313C200.832 96.7011 203.268 97.5019 205.158 99.2336C207.063 100.965 208.082 103.329 208.212 106.326L208.872 121.429L204.751 121.609L204.148 107.794C204.052 105.608 203.328 103.888 201.975 102.634C200.622 101.363 198.86 100.775 196.69 100.87C194.427 100.969 192.645 101.719 191.346 103.121C190.046 104.523 189.445 106.324 189.541 108.525L190.14 122.247L186.019 122.426L184.951 97.981L189.072 97.8011L189.235 101.524C191.092 98.5653 193.964 97.001 197.851 96.8313Z" fill="black"/>
<path d="M243.383 87.3908L248.615 99.4739L261.108 103.633L249.025 108.865L244.866 121.358L239.634 109.275L227.141 105.116L239.224 99.884L243.383 87.3908Z" fill="#FD853A"/>
<path d="M305.103 117.227L301.545 109.359L285.342 110.067L282.484 118.215L277.777 118.42L289.796 84.7466L295.041 84.5176L309.95 117.015L305.103 117.227ZM286.803 105.921L299.752 105.355L292.556 89.3884L286.803 105.921ZM326.261 91.2247C329.757 91.072 332.73 92.17 335.179 94.5185C337.627 96.8671 338.931 99.8599 339.09 103.497C339.248 107.134 338.211 110.229 335.976 112.782C333.742 115.335 330.876 116.688 327.379 116.841C325.381 116.928 323.543 116.57 321.866 115.768C320.188 114.95 318.792 113.783 317.678 112.268L318.268 125.778L314.147 125.958L312.682 92.4041L316.803 92.2241L316.995 96.6262C317.973 95.0195 319.262 93.7433 320.863 92.7976C322.464 91.8362 324.263 91.3119 326.261 91.2247ZM326.433 112.894C328.946 112.784 331.001 111.85 332.598 110.091C334.194 108.332 334.938 106.196 334.828 103.683C334.718 101.17 333.791 99.1068 332.048 97.4939C330.304 95.8809 328.175 95.1293 325.662 95.239C323.164 95.3481 321.125 96.2817 319.544 98.0398C317.963 99.7979 317.227 101.934 317.337 104.447C317.447 106.96 318.366 109.024 320.094 110.637C321.822 112.251 323.935 113.003 326.433 112.894ZM356.918 89.8862C360.415 89.7335 363.387 90.8315 365.836 93.18C368.284 95.5286 369.588 98.5214 369.747 102.159C369.905 105.796 368.868 108.891 366.633 111.444C364.399 113.997 361.533 115.35 358.036 115.502C356.038 115.59 354.201 115.232 352.523 114.429C350.845 113.611 349.449 112.444 348.335 110.929L348.925 124.44L344.804 124.62L343.339 91.0655L347.46 90.8856L347.652 95.2877C348.63 93.681 349.92 92.4048 351.52 91.4591C353.121 90.4977 354.92 89.9734 356.918 89.8862ZM357.09 111.556C359.603 111.446 361.658 110.512 363.255 108.753C364.851 106.994 365.595 104.858 365.485 102.345C365.375 99.8314 364.449 97.7683 362.705 96.1554C360.961 94.5424 358.832 93.7908 356.319 93.9005C353.821 94.0095 351.782 94.9431 350.201 96.7013C348.62 98.4594 347.884 100.595 347.994 103.108C348.104 105.622 349.023 107.685 350.751 109.299C352.479 110.912 354.592 111.665 357.09 111.556ZM397.884 80.0274C401.037 79.8897 403.925 80.4831 406.548 81.8074C409.17 83.1318 411.263 85.0267 412.825 87.4921C414.387 89.942 415.235 92.7201 415.371 95.8265C415.506 98.9329 414.904 101.782 413.562 104.374C412.221 106.967 410.302 109.037 407.804 110.585C405.307 112.133 402.482 112.975 399.328 113.113L386.567 113.67L385.122 80.5846L397.884 80.0274ZM399.101 108.994C402.598 108.841 405.473 107.527 407.727 105.052C409.98 102.576 411.03 99.5663 410.875 96.0228C410.773 93.6969 410.143 91.6131 408.983 89.7713C407.839 87.9132 406.298 86.4868 404.363 85.4922C402.442 84.4969 400.327 84.0496 398.017 84.1505L389.704 84.5134L390.789 109.357L399.101 108.994ZM444.648 98.8883C444.658 99.1225 444.646 99.733 444.611 100.72L423.561 101.639C424.076 103.775 425.174 105.471 426.856 106.727C428.552 107.966 430.579 108.535 432.936 108.432C434.684 108.355 436.276 107.918 437.712 107.121C439.146 106.307 440.252 105.297 441.028 104.09L443.967 106.402C442.806 108.11 441.263 109.484 439.338 110.522C437.428 111.559 435.303 112.129 432.961 112.231C429.137 112.398 425.898 111.304 423.246 108.949C420.594 106.593 419.188 103.581 419.028 99.9131C418.924 97.5404 419.384 95.362 420.408 93.3779C421.447 91.3776 422.925 89.7803 424.844 88.5861C426.762 87.3919 428.924 86.7423 431.328 86.6374C433.716 86.5331 435.91 86.9925 437.91 88.0157C439.909 89.0388 441.506 90.5096 442.7 92.4281C443.894 94.3309 444.543 96.4844 444.648 98.8883ZM431.446 90.4327C429.323 90.5254 427.518 91.2689 426.031 92.6632C424.543 94.042 423.649 95.7857 423.35 97.8945L440.186 97.1595C439.703 95.0535 438.66 93.3865 437.058 92.1583C435.456 90.9145 433.585 90.3393 431.446 90.4327ZM457.788 111.147C453.838 111.32 450.473 110.184 447.692 107.741L449.857 104.667C451.944 106.624 454.51 107.537 457.554 107.404C459.209 107.332 460.553 106.968 461.588 106.313C462.623 105.642 463.116 104.768 463.069 103.691C463.049 103.238 462.915 102.837 462.665 102.489C462.43 102.124 462.151 101.831 461.829 101.61C461.522 101.389 461.059 101.182 460.441 100.991C459.838 100.782 459.307 100.633 458.85 100.544C458.407 100.438 457.776 100.301 456.955 100.134C456.198 99.9793 455.598 99.8569 455.156 99.7667C454.714 99.6609 454.136 99.4985 453.422 99.2794C452.725 99.0596 452.152 98.8422 451.705 98.6271C451.273 98.4114 450.791 98.1274 450.26 97.7753C449.743 97.4069 449.328 97.0184 449.013 96.6098C448.712 96.185 448.448 95.6805 448.219 95.0961C448.005 94.4955 447.883 93.8362 447.851 93.1181C447.785 91.5883 448.164 90.2502 448.99 89.1037C449.816 87.9572 450.912 87.0961 452.279 86.5203C453.645 85.9289 455.186 85.5957 456.904 85.5207C460.431 85.3667 463.47 86.3523 466.018 88.4775L463.832 91.5993C461.96 89.9293 459.721 89.1513 457.114 89.2651C455.631 89.3298 454.41 89.6647 453.451 90.2696C452.492 90.8745 452.035 91.6843 452.079 92.6989C452.1 93.1672 452.235 93.5836 452.486 93.948C452.736 94.2968 453.014 94.5818 453.321 94.803C453.643 95.0235 454.122 95.2372 454.756 95.4441C455.39 95.6354 455.921 95.7843 456.348 95.8908C456.789 95.981 457.436 96.1091 458.288 96.2752C459.029 96.4149 459.621 96.5377 460.064 96.6435C460.521 96.733 461.098 96.8798 461.795 97.084C462.492 97.2881 463.057 97.4981 463.489 97.7138C463.935 97.9133 464.416 98.1894 464.932 98.5423C465.448 98.8951 465.856 99.2761 466.155 99.6853C466.455 100.095 466.711 100.599 466.925 101.2C467.154 101.784 467.284 102.428 467.314 103.13C467.417 105.487 466.57 107.386 464.771 108.825C462.972 110.248 460.644 111.022 457.788 111.147ZM472.902 80.5056C472.106 80.5404 471.431 80.3118 470.878 79.8198C470.324 79.3122 470.03 78.6682 469.996 77.8877C469.961 77.0916 470.198 76.4244 470.706 75.886C471.214 75.3477 471.867 75.0612 472.663 75.0264C473.443 74.9924 474.102 75.2217 474.64 75.7143C475.178 76.2069 475.464 76.8513 475.498 77.6474C475.533 78.4279 475.296 79.0952 474.788 79.6491C474.296 80.1867 473.667 80.4722 472.902 80.5056ZM472.122 109.935L471.055 85.4893L475.176 85.3094L476.243 109.755L472.122 109.935ZM497.913 109.442C500.239 109.341 502.177 109.843 503.727 110.948C505.276 112.053 506.213 113.615 506.535 115.634L502.322 116.921C502.227 115.83 501.72 114.969 500.801 114.336C499.899 113.719 498.752 113.441 497.363 113.501L488.348 113.895C486.319 113.983 484.649 113.517 483.337 112.495C482.041 111.472 481.356 110.103 481.281 108.385C481.231 107.23 481.449 106.142 481.936 105.119C482.438 104.081 483.146 103.284 484.06 102.728C482.956 101.79 482.078 100.671 481.427 99.3704C480.791 98.0688 480.44 96.6531 480.374 95.1233C480.241 92.0949 481.193 89.5275 483.228 87.4212C485.278 85.2985 487.895 84.1676 491.079 84.0286C493.249 83.9338 495.271 84.3773 497.143 85.3591C497.321 84.0532 497.892 82.996 498.858 82.1875C499.824 81.379 501.048 80.9424 502.531 80.8776L504.404 80.7958L504.572 84.6359L502.933 84.7075C502.043 84.7463 501.328 85.0278 500.788 85.5518C500.263 86.0596 500.01 86.7197 500.03 87.5321C501.705 89.3514 502.598 91.5567 502.712 94.148C502.843 97.1607 501.884 99.7363 499.835 101.875C497.785 103.997 495.176 105.128 492.007 105.266C490.087 105.35 488.345 105.043 486.782 104.345C486.312 104.678 485.947 105.101 485.688 105.612C485.443 106.108 485.333 106.621 485.356 107.152C485.394 108.01 485.744 108.683 486.406 109.17C487.069 109.658 487.915 109.879 488.945 109.834L497.913 109.442ZM491.251 87.9623C489.269 88.0489 487.65 88.7608 486.394 90.0981C485.138 91.4197 484.552 93.0328 484.635 94.9372C484.719 96.8573 485.444 98.4287 486.812 99.6515C488.194 100.858 489.868 101.418 491.835 101.332C493.802 101.247 495.413 100.543 496.669 99.2211C497.94 97.8831 498.534 96.2541 498.45 94.3341C498.367 92.4296 497.634 90.8742 496.252 89.6677C494.885 88.4449 493.218 87.8764 491.251 87.9623ZM520.542 82.7422C523.524 82.612 525.96 83.4128 527.849 85.1445C529.755 86.8755 530.773 89.2396 530.904 92.2368L531.563 107.34L527.442 107.519L526.839 93.7045C526.744 91.5191 526.019 89.7991 524.667 88.5444C523.313 87.2741 521.551 86.6863 519.381 86.781C517.118 86.8799 515.337 87.6302 514.037 89.0319C512.738 90.4337 512.136 92.2351 512.232 94.4361L512.831 108.157L508.71 108.337L507.643 83.8919L511.764 83.712L511.926 87.435C513.783 84.4762 516.655 82.9119 520.542 82.7422Z" fill="black"/>
<path d="M566.076 73.3019L571.308 85.3851L583.801 89.5442L571.718 94.7764L567.559 107.27L562.327 95.1864L549.833 91.0273L561.917 85.7951L566.076 73.3019Z" fill="#FD853A"/>
<path d="M614.666 70.5626C617.82 70.425 620.708 71.0183 623.33 72.3427C625.953 73.667 628.046 75.5619 629.608 78.0274C631.169 80.4772 632.018 83.2554 632.154 86.3618C632.289 89.4682 631.686 92.3175 630.345 94.9097C629.004 97.502 627.084 99.572 624.587 101.12C622.09 102.668 619.264 103.511 616.111 103.648L603.35 104.205L601.905 71.1198L614.666 70.5626ZM615.884 99.5293C619.381 99.3766 622.256 98.0625 624.51 95.5868C626.763 93.1111 627.813 90.1016 627.658 86.5581C627.556 84.2322 626.926 82.1483 625.766 80.3065C624.621 78.4484 623.081 77.0221 621.145 76.0274C619.225 75.0321 617.11 74.5849 614.8 74.6858L606.487 75.0487L607.572 99.8922L615.884 99.5293ZM657.104 77.3665L661.225 77.1865L662.292 101.632L658.171 101.812L657.979 97.4099C657.001 99.0165 655.705 100.301 654.089 101.263C652.488 102.209 650.688 102.725 648.69 102.812C646.396 102.913 644.287 102.449 642.366 101.423C640.444 100.381 638.909 98.9072 637.762 97.0023C636.631 95.081 636.013 92.9263 635.908 90.5379C635.804 88.1496 636.232 85.9569 637.193 83.96C638.169 81.9468 639.569 80.3451 641.394 79.155C643.218 77.9493 645.277 77.2963 647.572 77.1961C649.57 77.1089 651.408 77.4744 653.086 78.2926C654.779 79.0945 656.182 80.2532 657.296 81.7685L657.104 77.3665ZM649.289 98.798C651.787 98.689 653.826 97.7554 655.407 95.9973C657.004 94.2384 657.747 92.1024 657.638 89.5892C657.528 87.076 656.601 85.0129 654.857 83.3999C653.129 81.7862 651.016 81.0339 648.518 81.143C646.005 81.2527 643.95 82.187 642.353 83.9458C640.757 85.7046 640.013 87.8407 640.123 90.3539C640.233 92.8671 641.16 94.9302 642.903 96.5432C644.647 98.1562 646.776 98.9078 649.289 98.798ZM676.631 101.592C672.682 101.765 669.317 100.629 666.535 98.1858L668.7 95.1119C670.788 97.0696 673.353 97.982 676.397 97.8491C678.052 97.7768 679.397 97.4131 680.432 96.758C681.466 96.0873 681.96 95.2133 681.912 94.1362C681.893 93.6835 681.758 93.2828 681.508 92.934C681.273 92.5689 680.995 92.2761 680.672 92.0555C680.365 91.8343 679.903 91.6278 679.284 91.4358C678.681 91.2275 678.151 91.0787 677.693 90.9892C677.251 90.8834 676.619 90.7467 675.798 90.5792C675.041 90.4246 674.441 90.3022 673.999 90.212C673.557 90.1062 672.979 89.9438 672.266 89.7247C671.568 89.5049 670.995 89.2875 670.548 89.0724C670.116 88.8567 669.635 88.5727 669.103 88.2206C668.587 87.8521 668.171 87.4637 667.856 87.0551C667.556 86.6303 667.291 86.1257 667.063 85.5414C666.849 84.9408 666.726 84.2815 666.695 83.5634C666.628 82.0336 667.007 80.6955 667.833 79.549C668.659 78.4025 669.755 77.5414 671.122 76.9656C672.488 76.3742 674.03 76.041 675.747 75.966C679.275 75.812 682.313 76.7976 684.861 78.9228L682.675 82.0446C680.803 80.3746 678.564 79.5966 675.957 79.7104C674.474 79.7751 673.253 80.11 672.294 80.7149C671.336 81.3198 670.878 82.1295 670.923 83.1442C670.943 83.6125 671.078 84.0289 671.329 84.3933C671.579 84.7421 671.857 85.0271 672.164 85.2483C672.486 85.4688 672.965 85.6825 673.6 85.8894C674.234 86.0807 674.764 86.2296 675.191 86.3361C675.633 86.4262 676.28 86.5544 677.131 86.7205C677.873 86.8602 678.464 86.9829 678.907 87.0887C679.364 87.1783 679.942 87.3251 680.639 87.5293C681.336 87.7334 681.9 87.9434 682.332 88.1591C682.778 88.3586 683.26 88.6347 683.776 88.9876C684.292 89.3404 684.699 89.7214 684.999 90.1306C685.298 90.5398 685.555 91.0447 685.768 91.6453C685.997 92.2297 686.127 92.8731 686.158 93.5755C686.261 95.9326 685.413 97.8308 683.615 99.27C681.816 100.694 679.488 101.468 676.631 101.592ZM702.798 74.7849C705.78 74.6547 708.215 75.4555 710.105 77.1872C712.01 78.9183 713.029 81.2824 713.159 84.2795L713.819 99.3823L709.698 99.5622L709.095 85.7473C708.999 83.5618 708.275 81.8418 706.922 80.5871C705.569 79.3168 703.807 78.729 701.637 78.8238C699.374 78.9226 697.592 79.6729 696.293 81.0747C694.993 82.4764 694.392 84.2778 694.488 86.4789L695.087 100.2L690.966 100.38L689.458 65.8427L693.579 65.6627L694.188 79.6182C696.041 76.5657 698.911 74.9546 702.798 74.7849ZM732.308 73.4965C735.804 73.3438 738.777 74.4418 741.225 76.7903C743.674 79.1389 744.978 82.1318 745.136 85.7689C745.295 89.4061 744.257 92.5012 742.023 95.0542C739.788 97.6072 736.923 98.9601 733.426 99.1127C731.428 99.2 729.59 98.8423 727.913 98.0397C726.235 97.2215 724.839 96.0547 723.725 94.5393L723.917 98.9414L719.796 99.1213L718.288 64.5839L722.409 64.404L723.042 78.898C724.02 77.2913 725.309 76.0151 726.91 75.0694C728.51 74.108 730.31 73.5837 732.308 73.4965ZM732.48 95.1659C734.993 95.0561 737.048 94.1219 738.644 92.3631C740.241 90.6042 740.985 88.4682 740.875 85.955C740.765 83.4417 739.838 81.3786 738.094 79.7657C736.351 78.1527 734.222 77.4011 731.709 77.5108C729.211 77.6199 727.172 78.5535 725.591 80.3116C724.01 82.0697 723.274 84.2054 723.384 86.7187C723.493 89.2319 724.412 91.2953 726.141 92.909C727.869 94.5226 729.982 95.2749 732.48 95.1659ZM761.929 97.8683C759.494 97.9746 757.253 97.5172 755.206 96.4961C753.159 95.4594 751.523 93.9903 750.299 92.0888C749.089 90.171 748.432 88.0179 748.327 85.6296C748.223 83.2412 748.69 81.0469 749.729 79.0466C750.783 77.0299 752.285 75.4238 754.234 74.2283C756.183 73.0171 758.375 72.3584 760.811 72.252C764.495 72.0912 767.631 73.182 770.22 75.5244C772.825 77.8661 774.206 80.8556 774.365 84.4928C774.524 88.1299 773.408 91.2284 771.017 93.7883C768.642 96.3474 765.613 97.7074 761.929 97.8683ZM761.755 93.8877C764.253 93.7786 766.292 92.845 767.873 91.0869C769.47 89.3281 770.213 87.1921 770.104 84.6788C769.994 82.1656 769.067 80.1025 767.323 78.4895C765.595 76.8759 763.482 76.1236 760.984 76.2326C758.471 76.3424 756.416 77.2766 754.819 79.0354C753.223 80.7943 752.479 82.9303 752.589 85.4435C752.699 87.9568 753.626 90.0199 755.369 91.6328C757.113 93.2458 759.242 93.9974 761.755 93.8877ZM798.775 71.181L802.896 71.001L803.964 95.4465L799.843 95.6264L799.65 91.2244C798.673 92.831 797.376 94.1154 795.76 95.0774C794.159 96.0231 792.36 96.5396 790.362 96.6269C788.067 96.7271 785.959 96.2639 784.037 95.2374C782.115 94.1952 780.58 92.7217 779.434 90.8168C778.302 88.8955 777.684 86.7408 777.58 84.3524C777.475 81.9641 777.904 79.7714 778.864 77.7745C779.84 75.7613 781.24 74.1596 783.065 72.9695C784.889 71.7638 786.948 71.1108 789.243 71.0106C791.241 70.9234 793.079 71.2889 794.757 72.1071C796.45 72.909 797.853 74.0677 798.967 75.583L798.775 71.181ZM790.96 92.6125C793.458 92.5035 795.497 91.5699 797.078 89.8118C798.675 88.0529 799.419 85.9169 799.309 83.4037C799.199 80.8905 798.272 78.8274 796.528 77.2144C794.8 75.6007 792.687 74.8484 790.19 74.9575C787.676 75.0672 785.621 76.0015 784.025 77.7603C782.428 79.5191 781.685 81.6552 781.794 84.1684C781.904 86.6816 782.831 88.7447 784.575 90.3577C786.319 91.9707 788.447 92.7223 790.96 92.6125ZM821.641 69.7838L822.461 69.748L822.647 74.0096L821.827 74.0454C819.251 74.1578 817.247 75.0039 815.815 76.5835C814.397 78.1468 813.745 80.2085 813.856 82.7685L814.39 94.9913L810.269 95.1712L809.202 70.7257L813.323 70.5458L813.507 74.7605C815.292 71.6015 818.004 69.9426 821.641 69.7838ZM844.897 59.056L849.018 58.8761L850.526 93.4135L846.405 93.5935L846.213 89.1914C845.235 90.7981 843.938 92.0824 842.323 93.0444C840.722 93.9902 838.922 94.5067 836.924 94.5939C834.629 94.6941 832.521 94.2309 830.6 93.2044C828.677 92.1622 827.143 90.6887 825.996 88.7838C824.864 86.8626 824.246 84.7078 824.142 82.3194C824.038 79.9311 824.466 77.7385 825.427 75.7415C826.402 73.7283 827.803 72.1266 829.627 70.9365C831.452 69.7308 833.511 69.0779 835.806 68.9777C837.804 68.8904 839.642 69.2559 841.32 70.0741C843.012 70.8761 844.416 72.0347 845.53 73.5501L844.897 59.056ZM837.523 90.5796C840.021 90.4705 842.06 89.5369 843.641 87.7788C845.238 86.02 845.981 83.884 845.871 81.3707C845.762 78.8575 844.835 76.7944 843.091 75.1814C841.363 73.5678 839.25 72.8155 836.752 72.9245C834.239 73.0343 832.184 73.9685 830.587 75.7274C828.991 77.4862 828.247 79.6222 828.357 82.1354C828.467 84.6487 829.393 86.7118 831.137 88.3247C832.881 89.9377 835.01 90.6893 837.523 90.5796Z" fill="black"/>
<path d="M884.772 59.3874L890.004 71.4705L902.497 75.6297L890.414 80.8618L886.255 93.355L881.023 81.2719L868.53 77.1127L880.613 71.8805L884.772 59.3874Z" fill="#FD853A"/>
<path d="M959.822 55.4929L964.388 55.2935L955.272 88.8402L950.823 89.0345L941.44 62.7234L934.409 89.7511L929.96 89.9454L917.956 57.3208L922.615 57.1173L932.048 84.0362L939.264 56.3905L943.174 56.2197L952.771 83.1314L959.822 55.4929ZM970.623 58.7749C969.827 58.8096 969.152 58.581 968.599 58.0891C968.045 57.5815 967.751 56.9375 967.717 56.1569C967.682 55.3608 967.919 54.6936 968.427 54.1553C968.935 53.617 969.587 53.3305 970.383 53.2957C971.164 53.2616 971.823 53.4909 972.361 53.9836C972.898 54.4762 973.184 55.1206 973.219 55.9167C973.253 56.6972 973.017 57.3644 972.509 57.9183C972.016 58.456 971.388 58.7415 970.623 58.7749ZM969.843 88.2041L968.776 63.7586L972.897 63.5787L973.964 88.0241L969.843 88.2041ZM991.595 62.3635L992.414 62.3277L992.6 66.5893L991.781 66.6251C989.205 66.7375 987.201 67.5835 985.769 69.1632C984.351 70.7265 983.698 72.7882 983.81 75.3482L984.344 87.571L980.223 87.7509L979.155 63.3054L983.276 63.1255L983.46 67.3402C985.246 64.1812 987.958 62.5223 991.595 62.3635ZM1019.62 73.7848C1019.63 74.019 1019.62 74.6295 1019.58 75.6163L998.531 76.5354C999.046 78.6712 1000.14 80.3671 1001.83 81.623C1003.52 82.8627 1005.55 83.4311 1007.91 83.3282C1009.65 83.2519 1011.25 82.8148 1012.68 82.0171C1014.12 81.2037 1015.22 80.1936 1016 78.9867L1018.94 81.2982C1017.78 83.0067 1016.23 84.38 1014.31 85.4181C1012.4 86.4555 1010.27 87.0254 1007.93 87.1276C1004.11 87.2946 1000.87 86.2004 998.217 83.8451C995.564 81.4898 994.158 78.478 993.998 74.8096C993.895 72.4368 994.355 70.2584 995.378 68.2744C996.417 66.2741 997.896 64.6768 999.814 63.4826C1001.73 62.2884 1003.89 61.6388 1006.3 61.5339C1008.69 61.4296 1010.88 61.889 1012.88 62.9121C1014.88 63.9353 1016.48 65.4061 1017.67 67.3246C1018.86 69.2274 1019.51 71.3808 1019.62 73.7848ZM1006.42 65.3292C1004.29 65.4219 1002.49 66.1654 1001 67.5597C999.513 68.9384 998.619 70.6822 998.32 72.791L1015.16 72.0559C1014.67 69.95 1013.63 68.2829 1012.03 67.0548C1010.43 65.811 1008.56 65.2358 1006.42 65.3292ZM1032.58 54.099C1029.96 54.2135 1028.7 55.5117 1028.81 57.9938L1028.95 61.1314L1036 60.8237L1036.16 64.5467L1029.11 64.8544L1030.02 85.5768L1025.9 85.7568L1024.99 65.0343L1020.54 65.2286L1020.38 61.5056L1024.83 61.3113L1024.68 57.8927C1024.58 55.5668 1025.11 53.7528 1026.27 52.4509C1027.43 51.1489 1029.19 50.4465 1031.55 50.3435C1033.1 50.2761 1034.52 50.55 1035.83 51.1654L1035.99 54.8181C1034.89 54.2876 1033.75 54.0479 1032.58 54.099ZM1052.28 59.7138L1053.1 59.678L1053.29 63.9396L1052.47 63.9753C1049.89 64.0878 1047.89 64.9338 1046.46 66.5134C1045.04 68.0768 1044.39 70.1385 1044.5 72.6985L1045.03 84.9212L1040.91 85.1012L1039.84 60.6557L1043.96 60.4758L1044.15 64.6905C1045.93 61.5315 1048.65 59.8726 1052.28 59.7138ZM1075.98 59.078L1080.1 58.898L1081.17 83.3435L1077.05 83.5234L1076.86 79.1214C1075.88 80.7281 1074.58 82.0124 1072.96 82.9744C1071.36 83.9202 1069.56 84.4366 1067.57 84.5239C1065.27 84.6241 1063.16 84.1609 1061.24 83.1344C1059.32 82.0922 1057.79 80.6187 1056.64 78.7138C1055.51 76.7926 1054.89 74.6378 1054.78 72.2494C1054.68 69.8611 1055.11 67.6684 1056.07 65.6715C1057.04 63.6583 1058.44 62.0566 1060.27 60.8665C1062.09 59.6608 1064.15 59.0079 1066.45 58.9077C1068.45 58.8204 1070.28 59.1859 1071.96 60.0041C1073.65 60.806 1075.06 61.9647 1076.17 63.48L1075.98 59.078ZM1068.17 80.5096C1070.66 80.4005 1072.7 79.4669 1074.28 77.7088C1075.88 75.95 1076.62 73.8139 1076.51 71.3007C1076.4 68.7875 1075.48 66.7244 1073.73 65.1114C1072 63.4978 1069.89 62.7455 1067.39 62.8545C1064.88 62.9642 1062.83 63.8985 1061.23 65.6573C1059.63 67.4162 1058.89 69.5522 1059 72.0654C1059.11 74.5786 1060.04 76.6417 1061.78 78.2547C1063.52 79.8677 1065.65 80.6193 1068.17 80.5096ZM1115.58 56.7625C1118.39 56.6398 1120.67 57.385 1122.41 58.998C1124.17 60.5946 1125.11 62.7979 1125.23 65.6077L1125.92 81.3896L1121.8 81.5695L1121.16 66.935C1121.08 64.9837 1120.42 63.4561 1119.2 62.352C1118 61.2317 1116.42 60.7138 1114.49 60.7983C1112.49 60.8856 1110.91 61.5489 1109.74 62.7885C1108.58 64.028 1108.04 65.6312 1108.12 67.5981L1108.76 82.1389L1104.64 82.3188L1104 67.6844C1103.91 65.7331 1103.26 64.2054 1102.04 63.1014C1100.83 61.9811 1099.26 61.4632 1097.33 61.5477C1095.33 61.6349 1093.75 62.2983 1092.58 63.5378C1091.41 64.7774 1090.87 66.3806 1090.96 68.3475L1091.59 82.8883L1087.47 83.0682L1086.41 58.6228L1090.53 58.4428L1090.67 61.7444C1092.42 59.072 1095.03 57.6598 1098.51 57.5078C1100.41 57.4247 1102.1 57.7735 1103.55 58.5545C1105.01 59.3354 1106.13 60.4673 1106.91 61.9501C1107.77 60.3645 1108.93 59.125 1110.41 58.2315C1111.91 57.3374 1113.63 56.8477 1115.58 56.7625ZM1155.34 67.859C1155.35 68.0931 1155.34 68.7036 1155.3 69.6905L1134.25 70.6095C1134.77 72.7453 1135.87 74.4412 1137.55 75.6972C1139.25 76.9369 1141.27 77.5053 1143.63 77.4024C1145.38 77.326 1146.97 76.889 1148.41 76.0913C1149.84 75.2779 1150.95 74.2678 1151.72 73.0609L1154.66 75.3724C1153.5 77.0809 1151.96 78.4542 1150.03 79.4923C1148.12 80.5297 1146 81.0995 1143.66 81.2018C1139.83 81.3687 1136.59 80.2746 1133.94 77.9193C1131.29 75.564 1129.88 72.5521 1129.72 68.8837C1129.62 66.511 1130.08 64.3326 1131.1 62.3486C1132.14 60.3482 1133.62 58.751 1135.54 57.5568C1137.46 56.3626 1139.62 55.713 1142.02 55.608C1144.41 55.5038 1146.6 55.9632 1148.6 56.9863C1150.6 58.0094 1152.2 59.4802 1153.39 61.3987C1154.59 63.3016 1155.24 65.455 1155.34 67.859ZM1142.14 59.4033C1140.02 59.496 1138.21 60.2395 1136.72 61.6339C1135.24 63.0126 1134.34 64.7564 1134.04 66.8652L1150.88 66.1301C1150.4 64.0242 1149.35 62.3571 1147.75 61.1289C1146.15 59.8852 1144.28 59.31 1142.14 59.4033Z" fill="black"/>
<path d="M1188.48 46.1271L1193.72 58.2103L1206.21 62.3694L1194.13 67.6016L1189.97 80.0948L1184.73 68.0116L1172.24 63.8525L1184.32 58.6203L1188.48 46.1271Z" fill="#FD853A"/>
<path d="M1238.5 77.0609C1235.98 77.1707 1233.67 76.6929 1231.56 75.6278C1229.47 74.5619 1227.79 73.0477 1226.53 71.0851C1225.27 69.1069 1224.59 66.8768 1224.48 64.3948L1223.59 43.9767L1227.97 43.7855L1228.85 64.1099C1228.97 66.7012 1229.92 68.8335 1231.71 70.5069C1233.52 72.164 1235.72 72.9359 1238.31 72.8228C1240.92 72.709 1243.05 71.7479 1244.71 69.9395C1246.36 68.1155 1247.14 65.9079 1247.02 63.3166L1246.14 42.9922L1250.49 42.802L1251.38 63.2201C1251.49 65.7021 1251 67.9833 1249.92 70.0638C1248.84 72.1286 1247.29 73.7836 1245.28 75.0287C1243.29 76.2731 1241.03 76.9505 1238.5 77.0609ZM1265.95 75.8625C1262 76.0349 1258.63 74.8994 1255.85 72.4559L1258.02 69.3819C1260.1 71.3396 1262.67 72.252 1265.71 72.1191C1267.37 72.0469 1268.71 71.6832 1269.75 71.028C1270.78 70.3573 1271.27 69.4834 1271.23 68.4063C1271.21 67.9536 1271.07 67.5528 1270.82 67.204C1270.59 66.8389 1270.31 66.5461 1269.99 66.3256C1269.68 66.1044 1269.22 65.8978 1268.6 65.7058C1268 65.4976 1267.47 65.3487 1267.01 65.2592C1266.57 65.1534 1265.93 65.0167 1265.11 64.8493C1264.36 64.6946 1263.76 64.5723 1263.31 64.4821C1262.87 64.3763 1262.29 64.2138 1261.58 63.9947C1260.88 63.775 1260.31 63.5575 1259.86 63.3425C1259.43 63.1267 1258.95 62.8428 1258.42 62.4906C1257.9 62.1222 1257.49 61.7337 1257.17 61.3252C1256.87 60.9003 1256.61 60.3958 1256.38 59.8115C1256.16 59.2108 1256.04 58.5515 1256.01 57.8334C1255.94 56.3036 1256.32 54.9655 1257.15 53.819C1257.97 52.6725 1259.07 51.8114 1260.44 51.2356C1261.8 50.6442 1263.34 50.311 1265.06 50.236C1268.59 50.082 1271.63 51.0676 1274.18 53.1929L1271.99 56.3146C1270.12 54.6447 1267.88 53.8666 1265.27 53.9804C1263.79 54.0452 1262.57 54.38 1261.61 54.9849C1260.65 55.5898 1260.19 56.3996 1260.24 57.4142C1260.26 57.8825 1260.39 58.2989 1260.64 58.6633C1260.89 59.0121 1261.17 59.2971 1261.48 59.5183C1261.8 59.7389 1262.28 59.9526 1262.91 60.1595C1263.55 60.3507 1264.08 60.4996 1264.51 60.6061C1264.95 60.6963 1265.59 60.8244 1266.45 60.9906C1267.19 61.1302 1267.78 61.253 1268.22 61.3588C1268.68 61.4483 1269.26 61.5951 1269.95 61.7993C1270.65 62.0034 1271.22 62.2134 1271.65 62.4292C1272.09 62.6286 1272.57 62.9048 1273.09 63.2576C1273.61 63.6104 1274.01 63.9914 1274.31 64.4006C1274.61 64.8099 1274.87 65.3148 1275.08 65.9154C1275.31 66.4997 1275.44 67.1431 1275.47 67.8456C1275.58 70.2027 1274.73 72.1008 1272.93 73.54C1271.13 74.9636 1268.8 75.7378 1265.95 75.8625ZM1303.77 61.3785C1303.78 61.6126 1303.77 62.2231 1303.73 63.21L1282.68 64.1291C1283.2 66.2648 1284.3 67.9607 1285.98 69.2167C1287.67 70.4564 1289.7 71.0248 1292.06 70.9219C1293.81 70.8455 1295.4 70.4085 1296.83 69.6108C1298.27 68.7974 1299.37 67.7873 1300.15 66.5804L1303.09 68.8919C1301.93 70.6004 1300.39 71.9737 1298.46 73.0118C1296.55 74.0492 1294.43 74.619 1292.08 74.7213C1288.26 74.8883 1285.02 73.7941 1282.37 71.4388C1279.72 69.0835 1278.31 66.0716 1278.15 62.4032C1278.05 60.0305 1278.51 57.8521 1279.53 55.8681C1280.57 53.8677 1282.05 52.2705 1283.97 51.0763C1285.89 49.8821 1288.05 49.2325 1290.45 49.1275C1292.84 49.0233 1295.03 49.4827 1297.03 50.5058C1299.03 51.5289 1300.63 52.9997 1301.82 54.9182C1303.02 56.8211 1303.67 58.9745 1303.77 61.3785ZM1290.57 52.9228C1288.45 53.0155 1286.64 53.7591 1285.15 55.1534C1283.67 56.5321 1282.77 58.2759 1282.47 60.3847L1299.31 59.6496C1298.83 57.5437 1297.78 55.8766 1296.18 54.6485C1294.58 53.4047 1292.71 52.8295 1290.57 52.9228ZM1320.25 48.0142L1321.07 47.9784L1321.25 52.24L1320.44 52.2757C1317.86 52.3882 1315.86 53.2342 1314.42 54.8138C1313.01 56.3772 1312.35 58.4389 1312.46 60.9989L1313 73.2216L1308.88 73.4016L1307.81 48.9561L1311.93 48.7762L1312.11 52.9909C1313.9 49.8319 1316.61 48.173 1320.25 48.0142ZM1356.54 71.3206L1346.09 58.6161L1341.24 58.8277L1341.81 71.9636L1337.41 72.1558L1335.97 39.0701L1349.38 38.4843C1352.32 38.3562 1354.81 39.2092 1356.86 41.0434C1358.93 42.8769 1360.02 45.2298 1360.15 48.102C1360.26 50.7714 1359.47 53.0737 1357.78 55.009C1356.09 56.928 1353.9 58.0401 1351.21 58.3453L1361.86 71.0885L1356.54 71.3206ZM1340.55 42.999L1341.07 54.9876L1349.99 54.5981C1351.68 54.5245 1353.06 53.8934 1354.13 52.7048C1355.21 51.5161 1355.71 50.0633 1355.63 48.3462C1355.56 46.6291 1354.93 45.2253 1353.76 44.1348C1352.58 43.0443 1351.15 42.5359 1349.47 42.6095L1340.55 42.999ZM1388.93 57.6601C1388.94 57.8943 1388.93 58.5048 1388.9 59.4916L1367.85 60.4107C1368.36 62.5465 1369.46 64.2424 1371.14 65.4984C1372.84 66.7381 1374.87 67.3065 1377.22 67.2035C1378.97 67.1272 1380.56 66.6902 1382 65.8924C1383.43 65.0791 1384.54 64.069 1385.31 62.8621L1388.25 65.1736C1387.09 66.8821 1385.55 68.2554 1383.62 69.2935C1381.71 70.3309 1379.59 70.9007 1377.25 71.0029C1373.42 71.1699 1370.19 70.0758 1367.53 67.7204C1364.88 65.3651 1363.47 62.3533 1363.31 58.6849C1363.21 56.3122 1363.67 54.1338 1364.69 52.1497C1365.73 50.1494 1367.21 48.5521 1369.13 47.3579C1371.05 46.1637 1373.21 45.5142 1375.61 45.4092C1378 45.3049 1380.2 45.7644 1382.2 46.7875C1384.2 47.8106 1385.79 49.2814 1386.99 51.1999C1388.18 53.1028 1388.83 55.2562 1388.93 57.6601ZM1375.73 49.2045C1373.61 49.2972 1371.8 50.0407 1370.32 51.4351C1368.83 52.8138 1367.94 54.5575 1367.64 56.6663L1384.47 55.9313C1383.99 53.8253 1382.95 52.1583 1381.34 50.9301C1379.74 49.6863 1377.87 49.1111 1375.73 49.2045ZM1402.07 69.919C1398.13 70.0914 1394.76 68.9559 1391.98 66.5124L1394.14 63.4384C1396.23 65.3961 1398.8 66.3085 1401.84 66.1756C1403.5 66.1034 1404.84 65.7397 1405.88 65.0845C1406.91 64.4138 1407.4 63.5399 1407.36 62.4628C1407.34 62.0101 1407.2 61.6093 1406.95 61.2605C1406.72 60.8954 1406.44 60.6026 1406.12 60.3821C1405.81 60.1609 1405.35 59.9543 1404.73 59.7623C1404.12 59.5541 1403.59 59.4052 1403.14 59.3157C1402.69 59.2099 1402.06 59.0732 1401.24 58.9058C1400.48 58.7512 1399.88 58.6288 1399.44 58.5386C1399 58.4328 1398.42 58.2703 1397.71 58.0512C1397.01 57.8315 1396.44 57.614 1395.99 57.399C1395.56 57.1832 1395.08 56.8993 1394.55 56.5471C1394.03 56.1787 1393.61 55.7902 1393.3 55.3817C1393 54.9568 1392.73 54.4523 1392.51 53.868C1392.29 53.2673 1392.17 52.608 1392.14 51.8899C1392.07 50.3601 1392.45 49.022 1393.28 47.8755C1394.1 46.729 1395.2 45.8679 1396.57 45.2921C1397.93 44.7007 1399.47 44.3675 1401.19 44.2925C1404.72 44.1385 1407.76 45.1241 1410.3 47.2494L1408.12 50.3711C1406.25 48.7012 1404.01 47.9231 1401.4 48.0369C1399.92 48.1017 1398.7 48.4365 1397.74 49.0414C1396.78 49.6463 1396.32 50.4561 1396.37 51.4707C1396.39 51.939 1396.52 52.3554 1396.77 52.7198C1397.02 53.0686 1397.3 53.3536 1397.61 53.5748C1397.93 53.7954 1398.41 54.0091 1399.04 54.216C1399.68 54.4072 1400.21 54.5561 1400.63 54.6626C1401.08 54.7528 1401.72 54.8809 1402.57 55.0471C1403.32 55.1867 1403.91 55.3095 1404.35 55.4153C1404.81 55.5048 1405.38 55.6516 1406.08 55.8558C1406.78 56.06 1407.34 56.2699 1407.78 56.4857C1408.22 56.6851 1408.7 56.9613 1409.22 57.3141C1409.73 57.6669 1410.14 58.0479 1410.44 58.4572C1410.74 58.8664 1411 59.3713 1411.21 59.9719C1411.44 60.5562 1411.57 61.1996 1411.6 61.9021C1411.7 64.2592 1410.86 66.1573 1409.06 67.5965C1407.26 69.0201 1404.93 69.7943 1402.07 69.919ZM1439.9 55.435C1439.91 55.6691 1439.9 56.2796 1439.86 57.2665L1418.81 58.1856C1419.33 60.3214 1420.43 62.0172 1422.11 63.2732C1423.8 64.5129 1425.83 65.0813 1428.19 64.9784C1429.94 64.902 1431.53 64.465 1432.96 63.6673C1434.4 62.8539 1435.5 61.8438 1436.28 60.6369L1439.22 62.9484C1438.06 64.6569 1436.51 66.0302 1434.59 67.0683C1432.68 68.1057 1430.55 68.6755 1428.21 68.7778C1424.39 68.9448 1421.15 67.8506 1418.5 65.4953C1415.85 63.14 1414.44 60.1281 1414.28 56.4598C1414.18 54.087 1414.64 51.9086 1415.66 49.9246C1416.7 47.9242 1418.18 46.327 1420.1 45.1328C1422.01 43.9386 1424.17 43.289 1426.58 43.184C1428.97 43.0798 1431.16 43.5392 1433.16 44.5623C1435.16 45.5854 1436.76 47.0562 1437.95 48.9747C1439.15 50.8776 1439.79 53.031 1439.9 55.435ZM1426.7 46.9794C1424.57 47.072 1422.77 47.8156 1421.28 49.2099C1419.79 50.5886 1418.9 52.3324 1418.6 54.4412L1435.44 53.7061C1434.95 51.6002 1433.91 49.9331 1432.31 48.705C1430.71 47.4612 1428.84 46.886 1426.7 46.9794ZM1464.17 42.1293L1468.29 41.9494L1469.36 66.3949L1465.24 66.5748L1465.04 62.1727C1464.07 63.7794 1462.77 65.0638 1461.15 66.0258C1459.55 66.9715 1457.75 67.488 1455.76 67.5752C1453.46 67.6754 1451.35 67.2122 1449.43 66.1857C1447.51 65.1436 1445.97 63.67 1444.83 61.7651C1443.7 59.8439 1443.08 57.6891 1442.97 55.3008C1442.87 52.9124 1443.3 50.7198 1444.26 48.7229C1445.23 46.7096 1446.63 45.108 1448.46 43.9179C1450.28 42.7121 1452.34 42.0592 1454.64 41.959C1456.63 41.8718 1458.47 42.2373 1460.15 43.0555C1461.84 43.8574 1463.25 45.016 1464.36 46.5314L1464.17 42.1293ZM1456.35 63.5609C1458.85 63.4519 1460.89 62.5183 1462.47 60.7601C1464.07 59.0013 1464.81 56.8653 1464.7 54.3521C1464.59 51.8388 1463.67 49.7757 1461.92 48.1628C1460.19 46.5491 1458.08 45.7968 1455.58 45.9059C1453.07 46.0156 1451.02 46.9499 1449.42 48.7087C1447.82 50.4675 1447.08 52.6035 1447.19 55.1168C1447.3 57.63 1448.22 59.6931 1449.97 61.3061C1451.71 62.919 1453.84 63.6706 1456.35 63.5609ZM1487.03 40.7322L1487.85 40.6964L1488.04 44.9579L1487.22 44.9937C1484.65 45.1062 1482.64 45.9522 1481.21 47.5318C1479.79 49.0951 1479.14 51.1568 1479.25 53.7169L1479.78 65.9396L1475.66 66.1196L1474.6 41.6741L1478.72 41.4942L1478.9 45.7089C1480.69 42.5499 1483.4 40.891 1487.03 40.7322ZM1503.04 65.5106C1500.61 65.6169 1498.37 65.1595 1496.32 64.1384C1494.27 63.1017 1492.64 61.6326 1491.41 59.7311C1490.2 57.8133 1489.55 55.6603 1489.44 53.2719C1489.34 50.8836 1489.81 48.6892 1490.84 46.6889C1491.9 44.6722 1493.4 43.0661 1495.35 41.8706C1497.3 40.6594 1499.49 40.0007 1501.93 39.8944C1504.33 39.7894 1506.54 40.2481 1508.55 41.2706C1510.57 42.2774 1512.17 43.701 1513.36 45.5415L1509.87 47.8521C1509.07 46.558 1507.97 45.5577 1506.6 44.8515C1505.22 44.1296 1503.72 43.8041 1502.1 43.8749C1499.59 43.9847 1497.53 44.9189 1495.93 46.6778C1494.34 48.4366 1493.59 50.5726 1493.7 53.0858C1493.81 55.5991 1494.74 57.6622 1496.48 59.2751C1498.23 60.8881 1500.36 61.6397 1502.87 61.53C1504.49 61.4591 1505.96 61.0041 1507.27 60.165C1508.58 59.3259 1509.58 58.2265 1510.27 56.8669L1513.94 58.8647C1512.92 60.8176 1511.44 62.3914 1509.5 63.5863C1507.59 64.7649 1505.43 65.4063 1503.04 65.5106ZM1530.31 38.655C1533.29 38.5248 1535.73 39.3256 1537.62 41.0573C1539.52 42.7883 1540.54 45.1524 1540.67 48.1496L1541.33 63.2524L1537.21 63.4323L1536.61 49.6173C1536.51 47.4319 1535.79 45.7119 1534.44 44.4572C1533.08 43.1869 1531.32 42.5991 1529.15 42.6939C1526.89 42.7927 1525.11 43.543 1523.81 44.9447C1522.51 46.3465 1521.9 48.1479 1522 50.3489L1522.6 64.0702L1518.48 64.2502L1516.97 29.7128L1521.09 29.5328L1521.7 43.4883C1523.55 40.4358 1526.42 38.8247 1530.31 38.655Z" fill="black"/>
</svg>
